<?xml version="1.0" encoding="UTF-8"?>
<svg width="570px" height="283px" viewBox="0 0 570 283" version="1.1" xmlns="http://www.w3.org/2000/svg" xmlns:xlink="http://www.w3.org/1999/xlink">
    <!-- Generator: Sketch 48.2 (47327) - http://www.bohemiancoding.com/sketch -->
    <title>Group</title>
    <desc>Created with Sketch.</desc>
    <defs></defs>
    <g id="Desktop-HD" stroke="none" stroke-width="1" fill="none" fill-rule="evenodd" transform="translate(-431.000000, -96.000000)">
        <g id="Group" transform="translate(431.000000, 96.000000)" fill="#212529">
            <path d="M59.184,107.592 C28.224,107.592 4.176,85.848 4.176,53.88 C4.176,21.912 28.224,0.168 59.184,0.168 C71.568,0.168 82.368,3.48 90.72,7.368 L90.72,24.216 L59.328,13.992 C36.576,13.992 19.152,30.696 19.152,53.88 C19.152,77.064 37.296,93.768 60.912,93.768 C70.416,93.768 79.632,90.456 86.688,84.84 L92.304,98.376 C82.512,104.856 72.144,107.592 59.184,107.592 Z M135.504,106.728 C115.92,106.728 98.208,92.04 98.208,69.864 C98.208,47.688 115.92,33 135.504,33 C155.088,33 172.8,47.688 172.8,69.864 C172.8,92.04 155.088,106.728 135.504,106.728 Z M135.504,93.624 C148.32,93.624 158.4,83.688 158.4,69.864 C158.4,56.04 148.32,46.104 135.504,46.104 C122.688,46.104 112.608,56.04 112.608,69.864 C112.608,83.688 122.688,93.624 135.504,93.624 Z M218.736,105 L180,105 L180,94.776 L202.32,46.968 L181.44,47.832 L181.44,34.728 L217.296,34.728 L217.296,44.808 L194.976,92.904 L218.736,91.896 L218.736,105 Z M249.552,133.8 L230.544,133.8 L230.544,120.696 L244.368,121.56 L244.368,104.568 L223.488,34.728 L238.176,34.728 L251.424,87.288 L264.672,34.728 L279.36,34.728 L258.48,104.568 L258.48,124.872 C258.48,130.632 255.312,133.8 249.552,133.8 Z M298.8,105 L283.536,105 L344.016,2.76 L358.56,2.76 L298.8,105 Z M384.48,105 L370.08,105 L370.08,2.76 L412.992,2.76 L412.992,16.584 L384.48,16.584 L384.48,46.248 L412.272,46.248 L412.272,60.072 L384.48,60.072 L384.48,105 Z M437.76,105 L423.648,105 L423.648,2.76 L437.76,2.76 L437.76,105 Z M527.328,105 L512.928,105 L509.904,93.912 C503.568,102.12 494.208,106.728 484.416,106.728 C465.552,106.728 448.56,92.04 448.56,69.864 C448.56,47.688 465.552,33 484.416,33 C494.208,33 503.424,37.752 509.76,45.672 L509.76,34.728 L523.008,34.728 L523.008,89.16 L527.328,105 Z M485.856,93.48 C498.528,93.48 508.608,83.544 508.608,69.864 C508.608,56.184 498.528,46.248 485.856,46.248 C473.184,46.248 463.104,56.184 463.104,69.864 C463.104,83.544 473.184,93.48 485.856,93.48 Z M569.808,105 L550.8,105 C545.04,105 541.872,101.832 541.872,96.072 L541.872,47.832 L532.944,47.832 L532.944,34.728 L541.872,34.728 L541.872,15.72 L555.984,15.72 L555.984,34.728 L569.808,34.728 L569.808,47.832 L555.984,47.832 L555.984,92.904 L569.808,91.896 L569.808,105 Z" id="Cozy/Flat"></path>
            <path d="M3.996,194 L0.252,194 L6.408,168.44 L10.188,168.44 L16.344,194 L12.6,194 L11.52,189.212 L5.04,189.212 L3.996,194 Z M8.28,174.776 L5.832,185.756 L10.764,185.756 L8.28,174.776 Z M32.22,194 L28.764,194 L23.508,176.432 L27.252,176.432 L30.492,189.248 L33.732,176.432 L37.476,176.432 L32.22,194 Z M43.02,194 L39.492,194 L39.492,176.432 L43.02,176.432 L43.02,194 Z M43.02,172.22 L39.492,172.22 L39.492,168.44 L43.02,168.44 L43.02,172.22 Z M50.364,194.432 C48.744,194.432 47.052,194 45.9,193.244 L45.9,189.824 L50.364,191.48 L50.58,191.48 C52.056,191.48 52.956,190.616 52.956,189.284 C52.956,185.72 45.9,186.62 45.9,180.824 C45.9,177.836 48.276,176 51.372,176 C52.992,176 54.396,176.396 55.404,176.936 L55.404,180.248 L51.372,178.916 C50.112,178.916 49.32,179.708 49.32,180.788 C49.32,183.776 56.376,183.416 56.376,189.068 C56.376,192.452 54.036,194.432 50.364,194.432 Z M64.872,194.432 C60.948,194.432 58.788,191.948 58.788,188.276 L58.788,176.432 L62.316,176.432 L62.316,188.276 C62.316,189.968 63.072,191.228 64.872,191.228 C66.672,191.228 67.428,189.968 67.428,188.276 L67.428,176.432 L70.956,176.432 L70.956,188.276 C70.956,191.948 68.832,194.432 64.872,194.432 Z M93.24,194 L89.64,194 L88.884,191.228 C87.3,193.28 84.96,194.432 82.512,194.432 C77.796,194.432 73.548,190.76 73.548,185.216 C73.548,179.672 77.796,176 82.512,176 C84.96,176 87.264,177.188 88.848,179.168 L88.848,176.432 L92.16,176.432 L92.16,190.04 L93.24,194 Z M82.872,191.12 C86.04,191.12 88.56,188.636 88.56,185.216 C88.56,181.796 86.04,179.312 82.872,179.312 C79.704,179.312 77.184,181.796 77.184,185.216 C77.184,188.636 79.704,191.12 82.872,191.12 Z M99.36,194 L95.832,194 L95.832,168.44 L99.36,168.44 L99.36,194 Z M113.508,194 L109.908,194 L109.908,168.44 L113.508,168.44 L113.508,194 Z M120.96,194 L117.432,194 L117.432,176.432 L120.672,176.432 L120.672,178.232 C121.536,176.828 123.012,176 124.848,176 C127.872,176 129.888,178.196 129.888,181.616 L129.888,194 L126.36,194 L126.36,182.372 C126.36,180.248 125.28,179.132 123.696,179.132 C122.04,179.132 120.96,180.284 120.96,182.372 L120.96,194 Z M151.164,201.2 L147.564,201.2 L147.564,191.588 C145.98,193.388 143.784,194.432 141.48,194.432 C136.764,194.432 132.516,190.76 132.516,185.216 C132.516,179.672 136.764,176 141.48,176 C143.928,176 146.268,177.188 147.852,179.204 L147.852,176.432 L151.164,176.432 L151.164,201.2 Z M141.84,191.156 C144.972,191.156 147.42,188.816 147.564,185.468 L147.564,185.216 C147.564,181.76 145.044,179.276 141.84,179.276 C138.636,179.276 136.116,181.76 136.116,185.216 C136.116,188.672 138.636,191.156 141.84,191.156 Z M160.596,194.432 C156.672,194.432 154.512,191.948 154.512,188.276 L154.512,176.432 L158.04,176.432 L158.04,188.276 C158.04,189.968 158.796,191.228 160.596,191.228 C162.396,191.228 163.152,189.968 163.152,188.276 L163.152,176.432 L166.68,176.432 L166.68,188.276 C166.68,191.948 164.556,194.432 160.596,194.432 Z M173.556,194 L170.028,194 L170.028,176.432 L173.556,176.432 L173.556,194 Z M173.556,172.22 L170.028,172.22 L170.028,168.44 L173.556,168.44 L173.556,172.22 Z M180.54,194 L177.012,194 L177.012,176.432 L184.86,176.432 L184.86,179.888 L180.54,179.528 L180.54,194 Z M192.132,201.2 L187.38,201.2 L187.38,197.924 L190.836,198.14 L190.836,193.892 L185.616,176.432 L189.288,176.432 L192.6,189.572 L195.912,176.432 L199.584,176.432 L194.364,193.892 L194.364,198.968 C194.364,200.408 193.572,201.2 192.132,201.2 Z M5.256,238 L1.728,238 L1.728,220.432 L5.256,220.432 L5.256,238 Z M5.256,216.22 L1.728,216.22 L1.728,212.44 L5.256,212.44 L5.256,216.22 Z M12.24,238 L8.712,238 L8.712,220.432 L11.952,220.432 L11.952,222.232 C12.816,220.828 14.292,220 16.128,220 C19.152,220 21.168,222.196 21.168,225.616 L21.168,238 L17.64,238 L17.64,226.372 C17.64,224.248 16.56,223.132 14.976,223.132 C13.32,223.132 12.24,224.284 12.24,226.372 L12.24,238 Z M32.58,238 L27.828,238 C26.388,238 25.596,237.208 25.596,235.768 L25.596,223.708 L23.364,223.708 L23.364,220.432 L25.596,220.432 L25.596,215.68 L29.124,215.68 L29.124,220.432 L32.58,220.432 L32.58,223.708 L29.124,223.708 L29.124,234.976 L32.58,234.724 L32.58,238 Z M43.416,238.432 C38.52,238.432 34.092,234.76 34.092,229.216 C34.092,223.672 38.52,220 43.416,220 C48.312,220 52.74,223.672 52.74,229.216 C52.74,234.76 48.312,238.432 43.416,238.432 Z M43.416,235.156 C46.62,235.156 49.14,232.672 49.14,229.216 C49.14,225.76 46.62,223.276 43.416,223.276 C40.212,223.276 37.692,225.76 37.692,229.216 C37.692,232.672 40.212,235.156 43.416,235.156 Z M70.056,238 L65.304,238 C63.864,238 63.072,237.208 63.072,235.768 L63.072,223.708 L60.84,223.708 L60.84,220.432 L63.072,220.432 L63.072,215.68 L66.6,215.68 L66.6,220.432 L70.056,220.432 L70.056,223.708 L66.6,223.708 L66.6,234.976 L70.056,234.724 L70.056,238 Z M75.888,238 L72.36,238 L72.36,212.44 L75.888,212.44 L75.888,221.836 C76.752,220.684 78.12,220 79.776,220 C82.8,220 84.816,222.196 84.816,225.616 L84.816,238 L81.288,238 L81.288,226.372 C81.288,224.248 80.208,223.132 78.624,223.132 C76.968,223.132 75.888,224.284 75.888,226.372 L75.888,238 Z M96.912,238.432 C91.152,238.432 87.444,234.616 87.444,229.216 C87.444,223.816 91.224,220 96.12,220 C100.548,220 103.752,222.88 104.472,227.128 L104.472,230.512 L91.116,230.512 C91.44,233.68 93.852,235.372 97.2,235.372 L103.212,233.104 L103.212,236.488 C101.628,237.532 99.396,238.432 96.912,238.432 Z M96.12,223.132 C93.456,223.132 91.44,224.608 91.044,227.416 L101.196,227.416 C100.872,224.716 98.82,223.132 96.12,223.132 Z M117.72,238 L114.12,238 L114.12,212.44 L119.16,212.44 C124.236,212.44 127.116,215.608 127.116,219.604 C127.116,223.6 124.236,226.768 119.16,226.768 L117.72,226.768 L117.72,238 Z M119.34,215.896 L117.72,215.896 L117.72,223.312 L119.34,223.312 C121.716,223.312 123.516,222.016 123.516,219.604 C123.516,217.156 121.716,215.896 119.34,215.896 Z M132.948,238 L129.42,238 L129.42,220.432 L137.268,220.432 L137.268,223.888 L132.948,223.528 L132.948,238 Z M142.956,238 L139.428,238 L139.428,220.432 L142.956,220.432 L142.956,238 Z M142.956,216.22 L139.428,216.22 L139.428,212.44 L142.956,212.44 L142.956,216.22 Z M153.684,238 L150.228,238 L144.972,220.432 L148.716,220.432 L151.956,233.248 L155.196,220.432 L158.94,220.432 L153.684,238 Z M179.892,238 L176.292,238 L175.536,235.228 C173.952,237.28 171.612,238.432 169.164,238.432 C164.448,238.432 160.2,234.76 160.2,229.216 C160.2,223.672 164.448,220 169.164,220 C171.612,220 173.916,221.188 175.5,223.168 L175.5,220.432 L178.812,220.432 L178.812,234.04 L179.892,238 Z M169.524,235.12 C172.692,235.12 175.212,232.636 175.212,229.216 C175.212,225.796 172.692,223.312 169.524,223.312 C166.356,223.312 163.836,225.796 163.836,229.216 C163.836,232.636 166.356,235.12 169.524,235.12 Z M190.512,238 L185.76,238 C184.32,238 183.528,237.208 183.528,235.768 L183.528,223.708 L181.296,223.708 L181.296,220.432 L183.528,220.432 L183.528,215.68 L187.056,215.68 L187.056,220.432 L190.512,220.432 L190.512,223.708 L187.056,223.708 L187.056,234.976 L190.512,234.724 L190.512,238 Z M201.528,238.432 C195.768,238.432 192.06,234.616 192.06,229.216 C192.06,223.816 195.84,220 200.736,220 C205.164,220 208.368,222.88 209.088,227.128 L209.088,230.512 L195.732,230.512 C196.056,233.68 198.468,235.372 201.816,235.372 L207.828,233.104 L207.828,236.488 C206.244,237.532 204.012,238.432 201.528,238.432 Z M200.736,223.132 C198.072,223.132 196.056,224.608 195.66,227.416 L205.812,227.416 C205.488,224.716 203.436,223.132 200.736,223.132 Z M223.812,238.432 C221.292,238.432 219.384,237.784 217.692,237.028 L217.692,233.14 L223.632,235.156 C225.972,235.156 227.916,234.04 227.916,231.376 C227.916,225.688 217.872,226.372 217.872,218.632 C217.872,214.6 220.932,212.008 224.64,212.008 C226.62,212.008 228.384,212.512 230.112,213.34 L230.112,217.264 L224.928,215.248 C222.732,215.248 221.4,216.652 221.4,218.56 C221.4,223.672 231.444,223.348 231.444,231.376 C231.444,235.84 227.952,238.432 223.812,238.432 Z M237.564,245.2 L233.964,245.2 L233.964,220.432 L237.276,220.432 L237.276,223.204 C238.824,221.188 241.164,220 243.648,220 C248.364,220 252.612,223.672 252.612,229.216 C252.612,234.76 248.364,238.432 243.648,238.432 C241.308,238.432 239.112,237.388 237.564,235.588 L237.564,245.2 Z M243.288,235.156 C246.492,235.156 249.012,232.672 249.012,229.216 C249.012,225.76 246.492,223.276 243.288,223.276 C240.156,223.276 237.672,225.652 237.564,228.964 L237.564,229.216 C237.564,232.672 240.084,235.156 243.288,235.156 Z M274.248,238 L270.648,238 L269.892,235.228 C268.308,237.28 265.968,238.432 263.52,238.432 C258.804,238.432 254.556,234.76 254.556,229.216 C254.556,223.672 258.804,220 263.52,220 C265.968,220 268.272,221.188 269.856,223.168 L269.856,220.432 L273.168,220.432 L273.168,234.04 L274.248,238 Z M263.88,235.12 C267.048,235.12 269.568,232.636 269.568,229.216 C269.568,225.796 267.048,223.312 263.88,223.312 C260.712,223.312 258.192,225.796 258.192,229.216 C258.192,232.636 260.712,235.12 263.88,235.12 Z M285.372,238.432 C280.512,238.432 276.048,234.76 276.048,229.216 C276.048,223.672 280.512,220 285.372,220 C287.172,220 288.972,220.54 290.34,221.224 L290.34,224.824 L285.696,223.204 C282.168,223.204 279.648,225.724 279.648,229.216 C279.648,232.672 282.384,235.156 285.984,235.156 C287.352,235.156 288.684,234.508 289.692,233.68 L291.024,236.848 C289.368,237.856 287.604,238.432 285.372,238.432 Z M301.932,238.432 C296.172,238.432 292.464,234.616 292.464,229.216 C292.464,223.816 296.244,220 301.14,220 C305.568,220 308.772,222.88 309.492,227.128 L309.492,230.512 L296.136,230.512 C296.46,233.68 298.872,235.372 302.22,235.372 L308.232,233.104 L308.232,236.488 C306.648,237.532 304.416,238.432 301.932,238.432 Z M301.14,223.132 C298.476,223.132 296.46,224.608 296.064,227.416 L306.216,227.416 C305.892,224.716 303.84,223.132 301.14,223.132 Z M315.936,238.432 C314.316,238.432 312.624,238 311.472,237.244 L311.472,233.824 L315.936,235.48 L316.152,235.48 C317.628,235.48 318.528,234.616 318.528,233.284 C318.528,229.72 311.472,230.62 311.472,224.824 C311.472,221.836 313.848,220 316.944,220 C318.564,220 319.968,220.396 320.976,220.936 L320.976,224.248 L316.944,222.916 C315.684,222.916 314.892,223.708 314.892,224.788 C314.892,227.776 321.948,227.416 321.948,233.068 C321.948,236.452 319.608,238.432 315.936,238.432 Z M7.524,282 L3.924,282 L0.792,256.44 L4.392,256.44 L5.976,274.404 L8.532,260.4 L12.096,260.4 L14.652,274.404 L16.236,256.44 L19.836,256.44 L16.704,282 L13.104,282 L10.296,266.412 L7.524,282 Z M31.068,282.432 C25.308,282.432 21.6,278.616 21.6,273.216 C21.6,267.816 25.38,264 30.276,264 C34.704,264 37.908,266.88 38.628,271.128 L38.628,274.512 L25.272,274.512 C25.596,277.68 28.008,279.372 31.356,279.372 L37.368,277.104 L37.368,280.488 C35.784,281.532 33.552,282.432 31.068,282.432 Z M30.276,267.132 C27.612,267.132 25.596,268.608 25.2,271.416 L35.352,271.416 C35.028,268.716 32.976,267.132 30.276,267.132 Z M53.352,282.432 C50.832,282.432 48.924,281.784 47.232,281.028 L47.232,277.14 L53.172,279.156 C55.512,279.156 57.456,278.04 57.456,275.376 C57.456,269.688 47.412,270.372 47.412,262.632 C47.412,258.6 50.472,256.008 54.18,256.008 C56.16,256.008 57.924,256.512 59.652,257.34 L59.652,261.264 L54.468,259.248 C52.272,259.248 50.94,260.652 50.94,262.56 C50.94,267.672 60.984,267.348 60.984,275.376 C60.984,279.84 57.492,282.432 53.352,282.432 Z M67.032,282 L63.504,282 L63.504,256.44 L67.032,256.44 L67.032,265.836 C67.896,264.684 69.264,264 70.92,264 C73.944,264 75.96,266.196 75.96,269.616 L75.96,282 L72.432,282 L72.432,270.372 C72.432,268.248 71.352,267.132 69.768,267.132 C68.112,267.132 67.032,268.284 67.032,270.372 L67.032,282 Z M98.28,282 L94.68,282 L93.924,279.228 C92.34,281.28 90,282.432 87.552,282.432 C82.836,282.432 78.588,278.76 78.588,273.216 C78.588,267.672 82.836,264 87.552,264 C90,264 92.304,265.188 93.888,267.168 L93.888,264.432 L97.2,264.432 L97.2,278.04 L98.28,282 Z M87.912,279.12 C91.08,279.12 93.6,276.636 93.6,273.216 C93.6,269.796 91.08,267.312 87.912,267.312 C84.744,267.312 82.224,269.796 82.224,273.216 C82.224,276.636 84.744,279.12 87.912,279.12 Z M104.4,282 L100.872,282 L100.872,264.432 L108.72,264.432 L108.72,267.888 L104.4,267.528 L104.4,282 Z M119.592,282.432 C113.832,282.432 110.124,278.616 110.124,273.216 C110.124,267.816 113.904,264 118.8,264 C123.228,264 126.432,266.88 127.152,271.128 L127.152,274.512 L113.796,274.512 C114.12,277.68 116.532,279.372 119.88,279.372 L125.892,277.104 L125.892,280.488 C124.308,281.532 122.076,282.432 119.592,282.432 Z M118.8,267.132 C116.136,267.132 114.12,268.608 113.724,271.416 L123.876,271.416 C123.552,268.716 121.5,267.132 118.8,267.132 Z" id="A-visual-Inquiry-int"></path>
        </g>
    </g>
</svg>
